<mxfile host="65bd71144e">
    <diagram name="PÃ¡gina-1" id="Vr5SHsv1sODfcGzQEhuU">
        <mxGraphModel dx="2304" dy="1849" grid="1" gridSize="10" guides="1" tooltips="1" connect="1" arrows="1" fold="1" page="0" pageScale="1" pageWidth="827" pageHeight="1169" math="0" shadow="0">
            <root>
                <mxCell id="0"/>
                <mxCell id="1" parent="0"/>
                <mxCell id="9U0aeM2TIUe1qSRE-1mr-5" style="edgeStyle=orthogonalEdgeStyle;shape=connector;rounded=0;orthogonalLoop=1;jettySize=auto;html=1;strokeColor=default;align=center;verticalAlign=middle;fontFamily=Helvetica;fontSize=17;fontColor=default;labelBackgroundColor=default;endArrow=classic;curved=1;" parent="1" source="mYkncRqQD5Mv5q79z8K7-428" target="XbcS7dkoPebDVlinIHBa-2" edge="1">
                    <mxGeometry relative="1" as="geometry"/>
                </mxCell>
                <mxCell id="mYkncRqQD5Mv5q79z8K7-428" value="IP" style="ellipse;whiteSpace=wrap;html=1;aspect=fixed;fontSize=17;" parent="1" vertex="1">
                    <mxGeometry x="-70" y="-620" width="80" height="80" as="geometry"/>
                </mxCell>
                <mxCell id="mYkncRqQD5Mv5q79z8K7-429" value="IP:&lt;br style=&quot;font-size: 17px;&quot;&gt;M1:&lt;br style=&quot;font-size: 17px;&quot;&gt;F1:&lt;br style=&quot;font-size: 17px;&quot;&gt;ED: IP&lt;br style=&quot;font-size: 17px;&quot;&gt;M2:M1&lt;br style=&quot;font-size: 17px;&quot;&gt;F2:F1&lt;br style=&quot;font-size: 17px;&quot;&gt;PA:ED,M2&lt;br style=&quot;font-size: 17px;&quot;&gt;BDD:ED&lt;br style=&quot;font-size: 17px;&quot;&gt;RC:PA,F2&lt;br style=&quot;font-size: 17px;&quot;&gt;SO:PA,RC&lt;br style=&quot;font-size: 17px;&quot;&gt;IS:PA&lt;br style=&quot;font-size: 17px;&quot;&gt;SI: RC, BDD&lt;br style=&quot;font-size: 17px;&quot;&gt;IA:PA,M2&lt;br style=&quot;font-size: 17px;&quot;&gt;CG:F2,PA&lt;br style=&quot;font-size: 17px;&quot;&gt;DW:BDD,RC&lt;br style=&quot;font-size: 17px;&quot;&gt;SD:SO,RC&lt;br style=&quot;font-size: 17px;&quot;&gt;BD:BDD,M2&lt;br style=&quot;font-size: 17px;&quot;&gt;RO:F2,PA&lt;br&gt;CS:SI,SO&lt;br&gt;AA:PA,M2" style="text;whiteSpace=wrap;html=1;fontSize=17;" parent="1" vertex="1">
                    <mxGeometry x="500" y="-490" width="370" height="560" as="geometry"/>
                </mxCell>
                <mxCell id="9U0aeM2TIUe1qSRE-1mr-6" style="edgeStyle=orthogonalEdgeStyle;shape=connector;curved=1;rounded=0;orthogonalLoop=1;jettySize=auto;html=1;strokeColor=default;align=center;verticalAlign=middle;fontFamily=Helvetica;fontSize=17;fontColor=default;labelBackgroundColor=default;endArrow=classic;" parent="1" source="mYkncRqQD5Mv5q79z8K7-430" target="XbcS7dkoPebDVlinIHBa-4" edge="1">
                    <mxGeometry relative="1" as="geometry"/>
                </mxCell>
                <mxCell id="mYkncRqQD5Mv5q79z8K7-430" value="M1" style="ellipse;whiteSpace=wrap;html=1;fontSize=17;" parent="1" vertex="1">
                    <mxGeometry x="55" y="-620" width="80" height="80" as="geometry"/>
                </mxCell>
                <mxCell id="9U0aeM2TIUe1qSRE-1mr-7" style="edgeStyle=orthogonalEdgeStyle;shape=connector;curved=1;rounded=0;orthogonalLoop=1;jettySize=auto;html=1;strokeColor=default;align=center;verticalAlign=middle;fontFamily=Helvetica;fontSize=17;fontColor=default;labelBackgroundColor=default;endArrow=classic;" parent="1" source="XbcS7dkoPebDVlinIHBa-1" target="XbcS7dkoPebDVlinIHBa-5" edge="1">
                    <mxGeometry relative="1" as="geometry"/>
                </mxCell>
                <mxCell id="XbcS7dkoPebDVlinIHBa-1" value="F1" style="ellipse;whiteSpace=wrap;html=1;fontSize=17;" parent="1" vertex="1">
                    <mxGeometry x="190" y="-620" width="80" height="80" as="geometry"/>
                </mxCell>
                <mxCell id="27" style="edgeStyle=orthogonalEdgeStyle;shape=connector;curved=1;rounded=0;html=1;labelBackgroundColor=default;strokeColor=default;fontFamily=Helvetica;fontSize=17;fontColor=default;endArrow=classic;" edge="1" parent="1" source="XbcS7dkoPebDVlinIHBa-2" target="XbcS7dkoPebDVlinIHBa-6">
                    <mxGeometry relative="1" as="geometry"/>
                </mxCell>
                <mxCell id="29" style="edgeStyle=orthogonalEdgeStyle;shape=connector;curved=1;rounded=0;html=1;labelBackgroundColor=default;strokeColor=default;fontFamily=Helvetica;fontSize=17;fontColor=default;endArrow=classic;" edge="1" parent="1" source="XbcS7dkoPebDVlinIHBa-2" target="XbcS7dkoPebDVlinIHBa-7">
                    <mxGeometry relative="1" as="geometry"/>
                </mxCell>
                <mxCell id="XbcS7dkoPebDVlinIHBa-2" value="ED" style="ellipse;whiteSpace=wrap;html=1;fontSize=17;" parent="1" vertex="1">
                    <mxGeometry x="-70" y="-368" width="80" height="80" as="geometry"/>
                </mxCell>
                <mxCell id="fdED1msgqO8ccOxvb7XO-1" value="AA" style="ellipse;whiteSpace=wrap;html=1;aspect=fixed;fontSize=17;" parent="1" vertex="1">
                    <mxGeometry x="660" y="520" width="80" height="80" as="geometry"/>
                </mxCell>
                <mxCell id="28" style="edgeStyle=orthogonalEdgeStyle;shape=connector;curved=1;rounded=0;html=1;labelBackgroundColor=default;strokeColor=default;fontFamily=Helvetica;fontSize=17;fontColor=default;endArrow=classic;entryX=1;entryY=0;entryDx=0;entryDy=0;" edge="1" parent="1" source="XbcS7dkoPebDVlinIHBa-4" target="XbcS7dkoPebDVlinIHBa-6">
                    <mxGeometry relative="1" as="geometry">
                        <mxPoint y="70" as="targetPoint"/>
                        <Array as="points">
                            <mxPoint x="40" y="-328"/>
                            <mxPoint x="40" y="42"/>
                        </Array>
                    </mxGeometry>
                </mxCell>
                <mxCell id="40" style="edgeStyle=orthogonalEdgeStyle;shape=connector;curved=1;rounded=0;html=1;labelBackgroundColor=default;strokeColor=default;fontFamily=Helvetica;fontSize=17;fontColor=default;endArrow=classic;" edge="1" parent="1" source="XbcS7dkoPebDVlinIHBa-4" target="fdED1msgqO8ccOxvb7XO-16">
                    <mxGeometry relative="1" as="geometry">
                        <Array as="points">
                            <mxPoint x="170" y="-328"/>
                            <mxPoint x="170" y="370"/>
                        </Array>
                    </mxGeometry>
                </mxCell>
                <mxCell id="47" style="edgeStyle=orthogonalEdgeStyle;shape=connector;curved=1;rounded=0;html=1;labelBackgroundColor=default;strokeColor=default;fontFamily=Helvetica;fontSize=17;fontColor=default;endArrow=classic;" edge="1" parent="1" source="XbcS7dkoPebDVlinIHBa-4" target="XbcS7dkoPebDVlinIHBa-30">
                    <mxGeometry relative="1" as="geometry">
                        <Array as="points">
                            <mxPoint x="95" y="-400"/>
                            <mxPoint x="-460" y="-400"/>
                        </Array>
                    </mxGeometry>
                </mxCell>
                <mxCell id="55" style="edgeStyle=orthogonalEdgeStyle;shape=connector;curved=1;rounded=0;html=1;labelBackgroundColor=default;strokeColor=default;fontFamily=Helvetica;fontSize=20;fontColor=default;endArrow=classic;" edge="1" parent="1" source="XbcS7dkoPebDVlinIHBa-4" target="fdED1msgqO8ccOxvb7XO-1">
                    <mxGeometry relative="1" as="geometry"/>
                </mxCell>
                <mxCell id="XbcS7dkoPebDVlinIHBa-4" value="M2" style="ellipse;whiteSpace=wrap;html=1;fontSize=17;" parent="1" vertex="1">
                    <mxGeometry x="55" y="-368" width="80" height="80" as="geometry"/>
                </mxCell>
                <mxCell id="31" style="edgeStyle=orthogonalEdgeStyle;shape=connector;curved=1;rounded=0;html=1;labelBackgroundColor=default;strokeColor=default;fontFamily=Helvetica;fontSize=17;fontColor=default;endArrow=classic;" edge="1" parent="1" source="XbcS7dkoPebDVlinIHBa-5" target="XbcS7dkoPebDVlinIHBa-8">
                    <mxGeometry relative="1" as="geometry">
                        <Array as="points">
                            <mxPoint x="230" y="-260"/>
                            <mxPoint x="60" y="-260"/>
                            <mxPoint x="60" y="230"/>
                        </Array>
                    </mxGeometry>
                </mxCell>
                <mxCell id="42" style="edgeStyle=orthogonalEdgeStyle;shape=connector;curved=1;rounded=0;html=1;labelBackgroundColor=default;strokeColor=default;fontFamily=Helvetica;fontSize=17;fontColor=default;endArrow=classic;" edge="1" parent="1" source="XbcS7dkoPebDVlinIHBa-5" target="fdED1msgqO8ccOxvb7XO-14">
                    <mxGeometry relative="1" as="geometry">
                        <Array as="points">
                            <mxPoint x="410" y="-328"/>
                        </Array>
                    </mxGeometry>
                </mxCell>
                <mxCell id="50" style="edgeStyle=orthogonalEdgeStyle;shape=connector;curved=1;rounded=0;html=1;labelBackgroundColor=default;strokeColor=default;fontFamily=Helvetica;fontSize=17;fontColor=default;endArrow=classic;" edge="1" parent="1" source="XbcS7dkoPebDVlinIHBa-5" target="fdED1msgqO8ccOxvb7XO-6">
                    <mxGeometry relative="1" as="geometry"/>
                </mxCell>
                <mxCell id="XbcS7dkoPebDVlinIHBa-5" value="F2" style="ellipse;whiteSpace=wrap;html=1;fontSize=17;" parent="1" vertex="1">
                    <mxGeometry x="190" y="-368" width="80" height="80" as="geometry"/>
                </mxCell>
                <mxCell id="30" style="edgeStyle=orthogonalEdgeStyle;shape=connector;curved=1;rounded=0;html=1;labelBackgroundColor=default;strokeColor=default;fontFamily=Helvetica;fontSize=17;fontColor=default;endArrow=classic;" edge="1" parent="1" source="XbcS7dkoPebDVlinIHBa-6" target="XbcS7dkoPebDVlinIHBa-8">
                    <mxGeometry relative="1" as="geometry"/>
                </mxCell>
                <mxCell id="34" style="edgeStyle=orthogonalEdgeStyle;shape=connector;curved=1;rounded=0;html=1;exitX=0;exitY=1;exitDx=0;exitDy=0;entryX=1;entryY=0.5;entryDx=0;entryDy=0;labelBackgroundColor=default;strokeColor=default;fontFamily=Helvetica;fontSize=17;fontColor=default;endArrow=classic;" edge="1" parent="1" source="XbcS7dkoPebDVlinIHBa-6" target="XbcS7dkoPebDVlinIHBa-10">
                    <mxGeometry relative="1" as="geometry"/>
                </mxCell>
                <mxCell id="38" style="edgeStyle=orthogonalEdgeStyle;shape=connector;curved=1;rounded=0;html=1;labelBackgroundColor=default;strokeColor=default;fontFamily=Helvetica;fontSize=17;fontColor=default;endArrow=classic;" edge="1" parent="1" source="XbcS7dkoPebDVlinIHBa-6" target="fdED1msgqO8ccOxvb7XO-16">
                    <mxGeometry relative="1" as="geometry">
                        <Array as="points">
                            <mxPoint x="-30" y="140"/>
                            <mxPoint x="95" y="140"/>
                        </Array>
                    </mxGeometry>
                </mxCell>
                <mxCell id="41" style="edgeStyle=orthogonalEdgeStyle;shape=connector;curved=1;rounded=0;html=1;labelBackgroundColor=default;strokeColor=default;fontFamily=Helvetica;fontSize=17;fontColor=default;endArrow=classic;" edge="1" parent="1" source="XbcS7dkoPebDVlinIHBa-6" target="fdED1msgqO8ccOxvb7XO-14">
                    <mxGeometry relative="1" as="geometry">
                        <Array as="points">
                            <mxPoint x="410" y="80"/>
                        </Array>
                    </mxGeometry>
                </mxCell>
                <mxCell id="53" style="edgeStyle=orthogonalEdgeStyle;shape=connector;curved=1;rounded=0;html=1;labelBackgroundColor=default;strokeColor=default;fontFamily=Helvetica;fontSize=17;fontColor=default;endArrow=classic;" edge="1" parent="1" source="XbcS7dkoPebDVlinIHBa-6" target="fdED1msgqO8ccOxvb7XO-1">
                    <mxGeometry relative="1" as="geometry">
                        <Array as="points">
                            <mxPoint x="700" y="50"/>
                        </Array>
                    </mxGeometry>
                </mxCell>
                <mxCell id="56" style="edgeStyle=orthogonalEdgeStyle;shape=connector;curved=1;rounded=0;html=1;labelBackgroundColor=default;strokeColor=default;fontFamily=Helvetica;fontSize=20;fontColor=default;endArrow=classic;exitX=1;exitY=1;exitDx=0;exitDy=0;" edge="1" parent="1" source="XbcS7dkoPebDVlinIHBa-6" target="XbcS7dkoPebDVlinIHBa-9">
                    <mxGeometry relative="1" as="geometry">
                        <Array as="points">
                            <mxPoint x="-2" y="110"/>
                            <mxPoint x="280" y="110"/>
                        </Array>
                    </mxGeometry>
                </mxCell>
                <mxCell id="58" style="edgeStyle=orthogonalEdgeStyle;shape=connector;curved=1;rounded=0;html=1;labelBackgroundColor=default;strokeColor=default;fontFamily=Helvetica;fontSize=20;fontColor=default;endArrow=classic;" edge="1" parent="1" source="XbcS7dkoPebDVlinIHBa-6" target="fdED1msgqO8ccOxvb7XO-6">
                    <mxGeometry relative="1" as="geometry">
                        <Array as="points">
                            <mxPoint x="-30"/>
                            <mxPoint x="570"/>
                        </Array>
                    </mxGeometry>
                </mxCell>
                <mxCell id="XbcS7dkoPebDVlinIHBa-6" value="PA" style="ellipse;whiteSpace=wrap;html=1;fontSize=17;" parent="1" vertex="1">
                    <mxGeometry x="-70" y="30" width="80" height="80" as="geometry"/>
                </mxCell>
                <mxCell id="fdED1msgqO8ccOxvb7XO-4" value="CS" style="ellipse;whiteSpace=wrap;html=1;aspect=fixed;fontSize=17;" parent="1" vertex="1">
                    <mxGeometry x="440" y="430" width="80" height="80" as="geometry"/>
                </mxCell>
                <mxCell id="33" style="edgeStyle=orthogonalEdgeStyle;shape=connector;curved=1;rounded=0;html=1;labelBackgroundColor=default;strokeColor=default;fontFamily=Helvetica;fontSize=17;fontColor=default;endArrow=classic;exitX=1;exitY=1;exitDx=0;exitDy=0;" edge="1" parent="1" source="XbcS7dkoPebDVlinIHBa-8" target="XbcS7dkoPebDVlinIHBa-9">
                    <mxGeometry relative="1" as="geometry"/>
                </mxCell>
                <mxCell id="35" style="edgeStyle=orthogonalEdgeStyle;shape=connector;curved=1;rounded=0;html=1;exitX=0;exitY=1;exitDx=0;exitDy=0;entryX=1;entryY=0;entryDx=0;entryDy=0;labelBackgroundColor=default;strokeColor=default;fontFamily=Helvetica;fontSize=17;fontColor=default;endArrow=classic;" edge="1" parent="1" source="XbcS7dkoPebDVlinIHBa-8" target="fdED1msgqO8ccOxvb7XO-18">
                    <mxGeometry relative="1" as="geometry"/>
                </mxCell>
                <mxCell id="43" style="edgeStyle=orthogonalEdgeStyle;shape=connector;curved=1;rounded=0;html=1;labelBackgroundColor=default;strokeColor=default;fontFamily=Helvetica;fontSize=17;fontColor=default;endArrow=classic;exitX=0;exitY=1;exitDx=0;exitDy=0;" edge="1" parent="1" source="XbcS7dkoPebDVlinIHBa-8" target="fdED1msgqO8ccOxvb7XO-12">
                    <mxGeometry relative="1" as="geometry">
                        <Array as="points">
                            <mxPoint x="-40" y="258"/>
                            <mxPoint x="-40" y="400"/>
                            <mxPoint x="-90" y="400"/>
                        </Array>
                    </mxGeometry>
                </mxCell>
                <mxCell id="45" style="edgeStyle=orthogonalEdgeStyle;shape=connector;curved=1;rounded=0;html=1;labelBackgroundColor=default;strokeColor=default;fontFamily=Helvetica;fontSize=17;fontColor=default;endArrow=classic;" edge="1" parent="1" source="XbcS7dkoPebDVlinIHBa-8" target="fdED1msgqO8ccOxvb7XO-8">
                    <mxGeometry relative="1" as="geometry"/>
                </mxCell>
                <mxCell id="XbcS7dkoPebDVlinIHBa-8" value="RC" style="ellipse;whiteSpace=wrap;html=1;fontSize=17;" parent="1" vertex="1">
                    <mxGeometry x="-70" y="190" width="80" height="80" as="geometry"/>
                </mxCell>
                <mxCell id="fdED1msgqO8ccOxvb7XO-6" value="RO" style="ellipse;whiteSpace=wrap;html=1;aspect=fixed;fontSize=17;" parent="1" vertex="1">
                    <mxGeometry x="530" y="80" width="80" height="80" as="geometry"/>
                </mxCell>
                <mxCell id="36" style="edgeStyle=orthogonalEdgeStyle;shape=connector;curved=1;rounded=0;html=1;labelBackgroundColor=default;strokeColor=default;fontFamily=Helvetica;fontSize=17;fontColor=default;endArrow=classic;" edge="1" parent="1" source="XbcS7dkoPebDVlinIHBa-7" target="fdED1msgqO8ccOxvb7XO-18">
                    <mxGeometry relative="1" as="geometry">
                        <Array as="points">
                            <mxPoint x="-260" y="98"/>
                            <mxPoint x="-260" y="380"/>
                        </Array>
                    </mxGeometry>
                </mxCell>
                <mxCell id="44" style="edgeStyle=orthogonalEdgeStyle;shape=connector;curved=1;rounded=0;html=1;labelBackgroundColor=default;strokeColor=default;fontFamily=Helvetica;fontSize=17;fontColor=default;endArrow=classic;" edge="1" parent="1" source="XbcS7dkoPebDVlinIHBa-7" target="fdED1msgqO8ccOxvb7XO-12">
                    <mxGeometry relative="1" as="geometry">
                        <Array as="points">
                            <mxPoint x="-350" y="70"/>
                            <mxPoint x="-350" y="530"/>
                        </Array>
                    </mxGeometry>
                </mxCell>
                <mxCell id="48" style="edgeStyle=orthogonalEdgeStyle;shape=connector;curved=1;rounded=0;html=1;labelBackgroundColor=default;strokeColor=default;fontFamily=Helvetica;fontSize=17;fontColor=default;endArrow=classic;" edge="1" parent="1" source="XbcS7dkoPebDVlinIHBa-7" target="XbcS7dkoPebDVlinIHBa-30">
                    <mxGeometry relative="1" as="geometry"/>
                </mxCell>
                <mxCell id="XbcS7dkoPebDVlinIHBa-7" value="BDD" style="ellipse;whiteSpace=wrap;html=1;fontSize=17;" parent="1" vertex="1">
                    <mxGeometry x="-210" y="30" width="80" height="80" as="geometry"/>
                </mxCell>
                <mxCell id="fdED1msgqO8ccOxvb7XO-12" value="DW" style="ellipse;whiteSpace=wrap;html=1;aspect=fixed;fontSize=17;" parent="1" vertex="1">
                    <mxGeometry x="-130" y="510" width="80" height="80" as="geometry"/>
                </mxCell>
                <mxCell id="51" style="edgeStyle=orthogonalEdgeStyle;shape=connector;curved=1;rounded=0;html=1;labelBackgroundColor=default;strokeColor=default;fontFamily=Helvetica;fontSize=17;fontColor=default;endArrow=classic;" edge="1" parent="1" source="fdED1msgqO8ccOxvb7XO-18" target="fdED1msgqO8ccOxvb7XO-4">
                    <mxGeometry relative="1" as="geometry">
                        <Array as="points">
                            <mxPoint x="-170" y="480"/>
                        </Array>
                    </mxGeometry>
                </mxCell>
                <mxCell id="fdED1msgqO8ccOxvb7XO-18" value="SI" style="ellipse;whiteSpace=wrap;html=1;aspect=fixed;fontSize=17;" parent="1" vertex="1">
                    <mxGeometry x="-210" y="340" width="80" height="80" as="geometry"/>
                </mxCell>
                <mxCell id="46" style="edgeStyle=orthogonalEdgeStyle;shape=connector;curved=1;rounded=0;html=1;labelBackgroundColor=default;strokeColor=default;fontFamily=Helvetica;fontSize=17;fontColor=default;endArrow=classic;" edge="1" parent="1" source="XbcS7dkoPebDVlinIHBa-9" target="fdED1msgqO8ccOxvb7XO-8">
                    <mxGeometry relative="1" as="geometry">
                        <Array as="points">
                            <mxPoint x="280" y="460"/>
                            <mxPoint x="50" y="460"/>
                        </Array>
                    </mxGeometry>
                </mxCell>
                <mxCell id="52" style="edgeStyle=orthogonalEdgeStyle;shape=connector;curved=1;rounded=0;html=1;labelBackgroundColor=default;strokeColor=default;fontFamily=Helvetica;fontSize=17;fontColor=default;endArrow=classic;" edge="1" parent="1" source="XbcS7dkoPebDVlinIHBa-9" target="fdED1msgqO8ccOxvb7XO-4">
                    <mxGeometry relative="1" as="geometry"/>
                </mxCell>
                <mxCell id="XbcS7dkoPebDVlinIHBa-9" value="SO" style="ellipse;whiteSpace=wrap;html=1;fontSize=17;" parent="1" vertex="1">
                    <mxGeometry x="240" y="330" width="80" height="80" as="geometry"/>
                </mxCell>
                <mxCell id="fdED1msgqO8ccOxvb7XO-14" value="CG" style="ellipse;whiteSpace=wrap;html=1;aspect=fixed;fontSize=17;" parent="1" vertex="1">
                    <mxGeometry x="370" y="250" width="80" height="80" as="geometry"/>
                </mxCell>
                <mxCell id="fdED1msgqO8ccOxvb7XO-8" value="SD" style="ellipse;whiteSpace=wrap;html=1;aspect=fixed;fontSize=17;" parent="1" vertex="1">
                    <mxGeometry x="10" y="520" width="80" height="80" as="geometry"/>
                </mxCell>
                <mxCell id="XbcS7dkoPebDVlinIHBa-10" value="IS" style="ellipse;whiteSpace=wrap;html=1;fontSize=17;" parent="1" vertex="1">
                    <mxGeometry x="-210" y="190" width="80" height="80" as="geometry"/>
                </mxCell>
                <mxCell id="fdED1msgqO8ccOxvb7XO-16" value="IA" style="ellipse;whiteSpace=wrap;html=1;aspect=fixed;fontSize=17;" parent="1" vertex="1">
                    <mxGeometry x="55" y="330" width="80" height="80" as="geometry"/>
                </mxCell>
                <mxCell id="XbcS7dkoPebDVlinIHBa-30" value="BD" style="ellipse;whiteSpace=wrap;html=1;fontSize=17;" parent="1" vertex="1">
                    <mxGeometry x="-500" y="440" width="80" height="80" as="geometry"/>
                </mxCell>
            </root>
        </mxGraphModel>
    </diagram>
</mxfile>